<svg width="140" height="140" viewBox="0 0 140 140" fill="none" xmlns="http://www.w3.org/2000/svg">
<mask id="mask0_2_11" style="mask-type:luminance" maskUnits="userSpaceOnUse" x="0" y="0" width="140" height="140">
<path d="M140 0H0V140H140V0Z" fill="white"/>
</mask>
<g mask="url(#mask0_2_11)">
<g filter="url(#filter0_dddddddd_2_11)">
<path d="M98.114 61.303C106.528 61.303 113.348 54.994 113.348 47.211C113.348 39.428 106.528 33.119 98.114 33.119C89.701 33.119 82.88 39.428 82.88 47.211C82.88 54.994 89.701 61.303 98.114 61.303Z" fill="black"/>
<path d="M139.902 57.718C139.936 57.712 139.961 57.691 140 57.696C139.983 57.635 139.96 57.576 139.933 57.518C139.885 57.579 139.835 57.641 139.792 57.696L139.902 57.718Z" fill="white"/>
<path d="M37.725 80.564C37.814 83.639 38.3708 86.686 39.3788 89.617C39.4019 89.685 39.426 89.752 39.4501 89.82H45.6219C45.6153 89.759 45.6087 89.691 45.6021 89.617C45.1906 85.241 42.818 58.606 45.6548 54.051C45.4068 54.421 37.2466 66.659 37.725 80.564Z" fill="#E6E6E6"/>
<path d="M38.1881 89.617C38.2397 89.685 38.2935 89.753 38.3484 89.82H42.9783C42.9431 89.762 42.9025 89.694 42.8554 89.617C42.0905 88.34 39.8266 84.522 37.7251 80.564C35.4666 76.311 33.3947 71.896 33.5692 70.298C33.5154 70.659 31.9528 81.644 38.1881 89.617Z" fill="#E6E6E6"/>
<path d="M86.299 90.349C86.222 93.03 85.736 95.687 84.858 98.242C84.837 98.301 84.816 98.359 84.795 98.419H79.415C79.42 98.366 79.426 98.306 79.432 98.242C79.791 94.426 81.859 71.206 79.386 67.235C79.602 67.557 86.716 78.226 86.299 90.349Z" fill="#E6E6E6"/>
<path d="M85.896 98.2421C85.851 98.3011 85.804 98.3601 85.756 98.4191H81.72C81.75 98.3681 81.786 98.3091 81.827 98.2421C82.494 97.1281 84.467 93.8 86.299 90.349C88.268 86.641 90.075 82.792 89.922 81.399C89.969 81.713 91.332 91.291 85.896 98.2421Z" fill="#E6E6E6"/>
<path d="M24.7785 11.4381L27.2877 9.58205C25.3384 9.38305 24.5375 10.3661 24.2097 11.1451C22.6868 10.5601 21.029 11.3261 21.029 11.3261L26.0494 13.012C25.7962 12.386 25.3553 11.8401 24.7785 11.4381Z" fill="#3F3D56"/>
<path d="M100.354 1.88203L102.863 0.0260223C100.914 -0.172978 100.113 0.810026 99.785 1.58903C98.262 1.00403 96.604 1.77003 96.604 1.77003L101.625 3.45601C101.371 2.83101 100.93 2.28503 100.354 1.88203Z" fill="#3F3D56"/>
<path d="M137.272 75.296C137.272 76.834 137.214 78.36 137.098 79.873C136.205 91.81 131.73 103.28 124.177 112.995C123.19 114.269 122.154 115.508 121.068 116.71C118.255 119.831 115.132 122.701 111.739 125.283L96.868 117.211L87.976 98.014C87.976 98.014 101.243 73.166 137.248 73.617C137.263 74.174 137.271 74.734 137.272 75.296Z" fill="#3F3D56"/>
<path d="M137.835 68.178C137.151 77.098 134.475 85.791 129.977 93.707C125.479 101.622 119.256 108.59 111.701 114.169L97.885 106.671L90 89.645C90 89.645 102.777 65.715 137.835 68.178Z" fill="#63FF73"/>
<path d="M124.177 112.995C123.19 114.269 122.154 115.508 121.068 116.71C113.793 124.796 104.498 131.119 93.986 135.133C91.858 135.945 89.679 136.661 87.45 137.281C71.358 141.239 54.3099 140.238 38.8883 134.429C23.6365 128.132 11.3115 117.011 4.12693 103.063C3.16143 101.185 2.29313 99.26 1.52213 97.287C14.9688 88.175 41.4652 75.127 70.343 87.806C78.332 91.313 85.464 94.51 91.742 97.397C107.671 104.701 118.272 109.966 124.177 112.995Z" fill="#3F3D56"/>
<path d="M120.941 116.964C113.421 125.301 103.755 131.755 92.833 135.732C81.91 139.708 70.082 141.08 58.4363 139.721C46.7906 138.362 35.7014 134.316 26.1889 127.954C16.6764 121.592 9.0461 113.12 4 103.317C15.2302 95.102 41.1323 80.339 69.558 92.817C76.868 96.027 83.394 98.952 89.137 101.594C105.877 109.269 116.189 114.485 120.941 116.964Z" fill="#B5DDA2" fill-opacity="0.81"/>
<path d="M101.247 131.896C98.895 133.102 96.471 134.183 93.986 135.133C85.53 138.357 76.471 140.01 67.324 140C56.5018 139.996 45.8274 137.671 36.1398 133.208C26.4521 128.745 18.0149 122.265 11.4908 114.277C28.1967 112.648 74.375 110.45 101.247 131.896Z" fill="#3F3D56"/>
<path d="M93.986 135.133C80.873 140.121 66.433 141.309 52.5747 138.54C38.7164 135.772 26.093 129.177 16.3742 119.628C22.4506 118.802 70.157 113.132 93.986 135.133Z" fill="#B5DDA2" fill-opacity="0.64"/>
<path d="M125.54 39.415V39.417C75.594 5.25698 18.3696 29.3 17.9276 29.485V29.483C24.4137 23.484 32.1154 18.727 40.5917 15.486C49.068 12.244 58.1523 10.581 67.324 10.592C91.607 10.592 112.998 22.038 125.54 39.415Z" fill="#E6E6E6"/>
<path d="M21.9336 76.55C30.3829 75.141 34.7126 61.071 31.6043 45.123C28.4959 29.176 19.1267 17.39 10.6774 18.799C2.22822 20.208 -2.10148 34.279 1.00682 50.226C4.11512 66.174 13.4844 77.959 21.9336 76.55Z" fill="#3F3D56"/>
<path d="M24.1051 95.175C23.6041 60.146 10.9343 27.274 10.8064 26.946L9.65091 27.332C9.77821 27.658 22.3785 60.358 22.8768 95.19L24.1051 95.175Z" fill="#63FF73"/>
<path d="M1.62623 43.712L1.24823 44.793L16.4165 49.331L16.7946 48.25L1.62623 43.712Z" fill="#63FF73"/>
<path d="M30.1591 42.494L17.6614 51.65L18.4242 52.541L30.9219 43.385L30.1591 42.494Z" fill="#63FF73"/>
<path d="M62.561 71.5C71.851 71.5 79.382 57.285 79.382 39.75C79.382 22.215 71.851 8.00104 62.561 8.00104C53.2705 8.00104 45.7393 22.215 45.7393 39.75C45.7393 57.285 53.2705 71.5 62.561 71.5Z" fill="#3F3D56"/>
<path d="M61.007 91.72C67.745 54.328 61.075 17.071 61.007 16.7L59.6966 16.905C59.7644 17.275 66.395 54.336 59.6962 91.518L61.007 91.72Z" fill="#63FF73"/>
<path d="M47.751 32.923L47.124 34.008L62.335 41.534L62.962 40.45L47.751 32.923Z" fill="#63FF73"/>
<path d="M78.389 36.693L63.18 44.224L63.807 45.308L79.017 37.778L78.389 36.693Z" fill="#63FF73"/>
<path d="M135.629 61.2871C129.457 58.0821 123.008 55.3551 116.35 53.1341C79.533 40.8101 43.0251 45.5601 28.7352 63.1971C39.856 41.5901 79.537 34.796 119.581 48.2C124.242 49.758 128.803 51.5611 133.243 53.5981C134.21 56.1131 135.007 58.6811 135.629 61.2871Z" fill="#E6E6E6"/>
<path d="M85.905 26.518L88.414 24.662C86.465 24.463 85.664 25.446 85.336 26.225C83.813 25.64 82.155 26.406 82.155 26.406L87.176 28.092C86.923 27.467 86.482 26.921 85.905 26.518Z" fill="#3F3D56"/>
</g>
</g>
<defs>
<filter id="filter0_dddddddd_2_11" x="-4" y="0" width="148" height="148.23" filterUnits="userSpaceOnUse" color-interpolation-filters="sRGB">
<feFlood flood-opacity="0" result="BackgroundImageFix"/>
<feColorMatrix in="SourceAlpha" type="matrix" values="0 0 0 0 0 0 0 0 0 0 0 0 0 0 0 0 0 0 127 0" result="hardAlpha"/>
<feOffset dy="4"/>
<feGaussianBlur stdDeviation="2"/>
<feComposite in2="hardAlpha" operator="out"/>
<feColorMatrix type="matrix" values="0 0 0 0 0 0 0 0 0 0 0 0 0 0 0 0 0 0 0.25 0"/>
<feBlend mode="normal" in2="BackgroundImageFix" result="effect1_dropShadow_2_11"/>
<feColorMatrix in="SourceAlpha" type="matrix" values="0 0 0 0 0 0 0 0 0 0 0 0 0 0 0 0 0 0 127 0" result="hardAlpha"/>
<feOffset dy="4"/>
<feGaussianBlur stdDeviation="2"/>
<feComposite in2="hardAlpha" operator="out"/>
<feColorMatrix type="matrix" values="0 0 0 0 0 0 0 0 0 0 0 0 0 0 0 0 0 0 0.25 0"/>
<feBlend mode="normal" in2="effect1_dropShadow_2_11" result="effect2_dropShadow_2_11"/>
<feColorMatrix in="SourceAlpha" type="matrix" values="0 0 0 0 0 0 0 0 0 0 0 0 0 0 0 0 0 0 127 0" result="hardAlpha"/>
<feOffset dy="4"/>
<feGaussianBlur stdDeviation="2"/>
<feComposite in2="hardAlpha" operator="out"/>
<feColorMatrix type="matrix" values="0 0 0 0 0 0 0 0 0 0 0 0 0 0 0 0 0 0 0.25 0"/>
<feBlend mode="normal" in2="effect2_dropShadow_2_11" result="effect3_dropShadow_2_11"/>
<feColorMatrix in="SourceAlpha" type="matrix" values="0 0 0 0 0 0 0 0 0 0 0 0 0 0 0 0 0 0 127 0" result="hardAlpha"/>
<feOffset dy="4"/>
<feGaussianBlur stdDeviation="2"/>
<feComposite in2="hardAlpha" operator="out"/>
<feColorMatrix type="matrix" values="0 0 0 0 0 0 0 0 0 0 0 0 0 0 0 0 0 0 0.25 0"/>
<feBlend mode="normal" in2="effect3_dropShadow_2_11" result="effect4_dropShadow_2_11"/>
<feColorMatrix in="SourceAlpha" type="matrix" values="0 0 0 0 0 0 0 0 0 0 0 0 0 0 0 0 0 0 127 0" result="hardAlpha"/>
<feOffset dy="4"/>
<feGaussianBlur stdDeviation="2"/>
<feComposite in2="hardAlpha" operator="out"/>
<feColorMatrix type="matrix" values="0 0 0 0 0 0 0 0 0 0 0 0 0 0 0 0 0 0 0.25 0"/>
<feBlend mode="normal" in2="effect4_dropShadow_2_11" result="effect5_dropShadow_2_11"/>
<feColorMatrix in="SourceAlpha" type="matrix" values="0 0 0 0 0 0 0 0 0 0 0 0 0 0 0 0 0 0 127 0" result="hardAlpha"/>
<feOffset dy="4"/>
<feGaussianBlur stdDeviation="2"/>
<feComposite in2="hardAlpha" operator="out"/>
<feColorMatrix type="matrix" values="0 0 0 0 0 0 0 0 0 0 0 0 0 0 0 0 0 0 0.25 0"/>
<feBlend mode="normal" in2="effect5_dropShadow_2_11" result="effect6_dropShadow_2_11"/>
<feColorMatrix in="SourceAlpha" type="matrix" values="0 0 0 0 0 0 0 0 0 0 0 0 0 0 0 0 0 0 127 0" result="hardAlpha"/>
<feOffset dy="4"/>
<feGaussianBlur stdDeviation="2"/>
<feComposite in2="hardAlpha" operator="out"/>
<feColorMatrix type="matrix" values="0 0 0 0 0 0 0 0 0 0 0 0 0 0 0 0 0 0 0.25 0"/>
<feBlend mode="normal" in2="effect6_dropShadow_2_11" result="effect7_dropShadow_2_11"/>
<feColorMatrix in="SourceAlpha" type="matrix" values="0 0 0 0 0 0 0 0 0 0 0 0 0 0 0 0 0 0 127 0" result="hardAlpha"/>
<feOffset dy="4"/>
<feGaussianBlur stdDeviation="2"/>
<feComposite in2="hardAlpha" operator="out"/>
<feColorMatrix type="matrix" values="0 0 0 0 0 0 0 0 0 0 0 0 0 0 0 0 0 0 0.25 0"/>
<feBlend mode="normal" in2="effect7_dropShadow_2_11" result="effect8_dropShadow_2_11"/>
<feBlend mode="normal" in="SourceGraphic" in2="effect8_dropShadow_2_11" result="shape"/>
</filter>
</defs>
</svg>
